<svg xmlns="http://www.w3.org/2000/svg" viewBox="0 0 24 24">
  <path d="M5,2H19A2,2 0 0,1 21,4V20A2,2 0 0,1 19,22H5A2,2 0 0,1 3,20V4A2,2 0 0,1 5,2M12,4A4,4 0 0,0 8,8H11.26L10.85,5.23L12.9,8H16A4,4 0 0,0 12,4Z" fill="#3E7AB5" />
  <path d="M8.25,16.5C9.18,15.6 10.6,14.84 12,14.84C13.4,14.84 14.82,15.6 15.75,16.5C16.42,17.11 17.28,17.27 18,17.27V19.27C17.28,19.27 16.42,19.42 15.75,20.04C14.82,20.94 13.4,21.7 12,21.7C10.6,21.7 9.18,20.94 8.25,20.04C7.58,19.42 6.72,19.27 6,19.27V17.27C6.72,17.27 7.58,17.11 8.25,16.5Z" fill="#FDD835" />
  <path d="M15.75,16.5C14.82,15.6 13.4,14.84 12,14.84C10.6,14.84 9.18,15.6 8.25,16.5C7.58,17.11 6.72,17.27 6,17.27V15.27C6.72,15.27 7.58,15.11 8.25,14.5C9.18,13.6 10.6,12.84 12,12.84C13.4,12.84 14.82,13.6 15.75,14.5C16.42,15.11 17.28,15.27 18,15.27V17.27C17.28,17.27 16.42,17.42 15.75,18.04Z" fill="#FDD835" />
</svg>